<svg xmlns="http://www.w3.org/2000/svg" xmlns:xlink="http://www.w3.org/1999/xlink" width="200" zoomAndPan="magnify" viewBox="0 0 150 44.999999" height="60" preserveAspectRatio="xMidYMid meet" version="1.0"><defs><g/><clipPath id="6426042925"><path d="M 0.390625 2.179688 L 39.210938 2.179688 L 39.210938 41 L 0.390625 41 Z M 0.390625 2.179688 " clip-rule="nonzero"/></clipPath><clipPath id="36a04933c1"><path d="M 19.800781 2.179688 C 9.078125 2.179688 0.390625 10.867188 0.390625 21.589844 C 0.390625 32.308594 9.078125 41 19.800781 41 C 30.519531 41 39.210938 32.308594 39.210938 21.589844 C 39.210938 10.867188 30.519531 2.179688 19.800781 2.179688 Z M 19.800781 2.179688 " clip-rule="nonzero"/></clipPath><clipPath id="2075278997"><path d="M 0.390625 0.179688 L 39.210938 0.179688 L 39.210938 39 L 0.390625 39 Z M 0.390625 0.179688 " clip-rule="nonzero"/></clipPath><clipPath id="27355a43d4"><path d="M 19.800781 0.179688 C 9.078125 0.179688 0.390625 8.867188 0.390625 19.589844 C 0.390625 30.308594 9.078125 39 19.800781 39 C 30.519531 39 39.210938 30.308594 39.210938 19.589844 C 39.210938 8.867188 30.519531 0.179688 19.800781 0.179688 Z M 19.800781 0.179688 " clip-rule="nonzero"/></clipPath><clipPath id="0a7d91f86e"><rect x="0" width="40" y="0" height="39"/></clipPath><clipPath id="68fb84898d"><path d="M 8 7 L 27 7 L 27 37 L 8 37 Z M 8 7 " clip-rule="nonzero"/></clipPath><clipPath id="28a49ca9d0"><path d="M 2.371094 17.535156 L 24.835938 4.375 L 37.324219 25.695312 L 14.859375 38.855469 Z M 2.371094 17.535156 " clip-rule="nonzero"/></clipPath><clipPath id="5c927a98ce"><path d="M 2.371094 17.535156 L 24.835938 4.375 L 37.324219 25.695312 L 14.859375 38.855469 Z M 2.371094 17.535156 " clip-rule="nonzero"/></clipPath><clipPath id="eb394d3563"><path d="M 2.371094 17.535156 L 24.835938 4.375 L 37.324219 25.695312 L 14.859375 38.855469 Z M 2.371094 17.535156 " clip-rule="nonzero"/></clipPath><clipPath id="d0ed3515fd"><path d="M 43 0.078125 L 146.359375 0.078125 L 146.359375 27 L 43 27 Z M 43 0.078125 " clip-rule="nonzero"/></clipPath><clipPath id="507a7f92fa"><rect x="0" width="104" y="0" height="27"/></clipPath><clipPath id="1f1485e054"><path d="M 86 4 L 94.679688 4 L 94.679688 13 L 86 13 Z M 86 4 " clip-rule="nonzero"/></clipPath><clipPath id="4c87f0f8bb"><rect x="0" width="95" y="0" height="17"/></clipPath><clipPath id="a4e33bee5b"><rect x="0" width="147" y="0" height="41"/></clipPath></defs><g transform="matrix(1, 0, 0, 1, 1, 4)"><g clip-path="url(#a4e33bee5b)"><g clip-path="url(#6426042925)"><g clip-path="url(#36a04933c1)"><g transform="matrix(1, 0, 0, 1, 0, 2)"><g clip-path="url(#0a7d91f86e)"><g clip-path="url(#2075278997)"><g clip-path="url(#27355a43d4)"><path fill="#135650" d="M 0.390625 0.179688 L 39.210938 0.179688 L 39.210938 39 L 0.390625 39 Z M 0.390625 0.179688 " fill-opacity="1" fill-rule="nonzero"/></g></g></g></g></g></g><g clip-path="url(#68fb84898d)"><g clip-path="url(#28a49ca9d0)"><g clip-path="url(#5c927a98ce)"><g clip-path="url(#eb394d3563)"><path fill="#25995c" d="M 22.046875 11.113281 C 11.425781 17.269531 8.640625 25.554688 14.160156 36.09375 C 14.230469 36.226562 14.046875 36.34375 13.953125 36.226562 C 11.519531 33.152344 9.820312 30.046875 9.117188 26.894531 C 6.785156 16.492188 16.800781 9.082031 26.007812 7.414062 C 26.464844 7.332031 26.828125 7.773438 26.660156 8.210938 C 23.523438 16.410156 31.902344 28.871094 14.222656 31.699219 C 12.371094 23.382812 14.441406 16.347656 22.046875 11.113281 " fill-opacity="1" fill-rule="evenodd"/></g></g></g></g><g clip-path="url(#d0ed3515fd)"><g transform="matrix(1, 0, 0, 1, 43, 0)"><g clip-path="url(#507a7f92fa)"><g fill="#25995c" fill-opacity="1"><g transform="translate(0.161178, 20.879587)"><g><path d="M 1.78125 -15.078125 L 8.640625 -15.078125 C 10.273438 -15.078125 11.71875 -14.765625 12.96875 -14.140625 C 14.226562 -13.515625 15.203125 -12.632812 15.890625 -11.5 C 16.585938 -10.363281 16.9375 -9.039062 16.9375 -7.53125 C 16.9375 -6.03125 16.585938 -4.710938 15.890625 -3.578125 C 15.203125 -2.441406 14.226562 -1.5625 12.96875 -0.9375 C 11.71875 -0.3125 10.273438 0 8.640625 0 L 1.78125 0 Z M 8.46875 -2.859375 C 9.96875 -2.859375 11.164062 -3.28125 12.0625 -4.125 C 12.957031 -4.96875 13.40625 -6.101562 13.40625 -7.53125 C 13.40625 -8.96875 12.957031 -10.101562 12.0625 -10.9375 C 11.164062 -11.78125 9.96875 -12.203125 8.46875 -12.203125 L 5.28125 -12.203125 L 5.28125 -2.859375 Z M 8.46875 -2.859375 "/></g></g></g><g fill="#25995c" fill-opacity="1"><g transform="translate(26.456834, 20.879587)"><g><path d="M 9.09375 0.265625 C 7.519531 0.265625 6.101562 -0.0703125 4.84375 -0.75 C 3.59375 -1.425781 2.613281 -2.351562 1.90625 -3.53125 C 1.195312 -4.71875 0.84375 -6.050781 0.84375 -7.53125 C 0.84375 -9.007812 1.195312 -10.34375 1.90625 -11.53125 C 2.613281 -12.71875 3.59375 -13.644531 4.84375 -14.3125 C 6.101562 -14.988281 7.519531 -15.328125 9.09375 -15.328125 C 10.65625 -15.328125 12.054688 -14.988281 13.296875 -14.3125 C 14.546875 -13.644531 15.53125 -12.71875 16.25 -11.53125 C 16.96875 -10.34375 17.328125 -9.007812 17.328125 -7.53125 C 17.328125 -6.050781 16.96875 -4.71875 16.25 -3.53125 C 15.53125 -2.351562 14.546875 -1.425781 13.296875 -0.75 C 12.054688 -0.0703125 10.65625 0.265625 9.09375 0.265625 Z M 9.09375 -2.71875 C 9.976562 -2.71875 10.78125 -2.921875 11.5 -3.328125 C 12.21875 -3.734375 12.78125 -4.300781 13.1875 -5.03125 C 13.59375 -5.769531 13.796875 -6.601562 13.796875 -7.53125 C 13.796875 -8.46875 13.59375 -9.300781 13.1875 -10.03125 C 12.78125 -10.757812 12.21875 -11.328125 11.5 -11.734375 C 10.78125 -12.148438 9.976562 -12.359375 9.09375 -12.359375 C 8.195312 -12.359375 7.390625 -12.148438 6.671875 -11.734375 C 5.953125 -11.328125 5.390625 -10.757812 4.984375 -10.03125 C 4.578125 -9.300781 4.375 -8.46875 4.375 -7.53125 C 4.375 -6.601562 4.578125 -5.769531 4.984375 -5.03125 C 5.390625 -4.300781 5.953125 -3.734375 6.671875 -3.328125 C 7.390625 -2.921875 8.195312 -2.71875 9.09375 -2.71875 Z M 9.09375 -2.71875 "/></g></g></g><g fill="#25995c" fill-opacity="1"><g transform="translate(53.14014, 20.879587)"><g><path d="M 11.96875 -7.765625 L 15.15625 -7.765625 L 15.15625 -1.65625 C 14.34375 -1.039062 13.394531 -0.566406 12.3125 -0.234375 C 11.238281 0.0976562 10.15625 0.265625 9.0625 0.265625 C 7.5 0.265625 6.09375 -0.0664062 4.84375 -0.734375 C 3.59375 -1.410156 2.613281 -2.335938 1.90625 -3.515625 C 1.195312 -4.703125 0.84375 -6.039062 0.84375 -7.53125 C 0.84375 -9.03125 1.195312 -10.367188 1.90625 -11.546875 C 2.613281 -12.734375 3.597656 -13.660156 4.859375 -14.328125 C 6.128906 -14.992188 7.550781 -15.328125 9.125 -15.328125 C 10.445312 -15.328125 11.644531 -15.101562 12.71875 -14.65625 C 13.800781 -14.21875 14.707031 -13.570312 15.4375 -12.71875 L 13.203125 -10.65625 C 12.117188 -11.789062 10.816406 -12.359375 9.296875 -12.359375 C 8.335938 -12.359375 7.484375 -12.15625 6.734375 -11.75 C 5.992188 -11.351562 5.414062 -10.785156 5 -10.046875 C 4.582031 -9.316406 4.375 -8.476562 4.375 -7.53125 C 4.375 -6.601562 4.582031 -5.769531 5 -5.03125 C 5.414062 -4.300781 5.992188 -3.734375 6.734375 -3.328125 C 7.472656 -2.921875 8.316406 -2.71875 9.265625 -2.71875 C 10.265625 -2.71875 11.164062 -2.929688 11.96875 -3.359375 Z M 11.96875 -7.765625 "/></g></g></g><g fill="#25995c" fill-opacity="1"><g transform="translate(78.25131, 20.879587)"><g><path d="M 11.71875 -3.234375 L 4.71875 -3.234375 L 3.375 0 L -0.1875 0 L 6.53125 -15.078125 L 9.96875 -15.078125 L 16.703125 0 L 13.046875 0 Z M 10.609375 -5.875 L 8.21875 -11.65625 L 5.828125 -5.875 Z M 10.609375 -5.875 "/></g></g></g></g></g></g><g transform="matrix(1, 0, 0, 1, 44, 21)"><g clip-path="url(#4c87f0f8bb)"><g fill="#135650" fill-opacity="1"><g transform="translate(0.426052, 12.619734)"><g><path d="M 1.015625 -8.59375 L 4.921875 -8.59375 C 5.847656 -8.59375 6.671875 -8.410156 7.390625 -8.046875 C 8.109375 -7.691406 8.664062 -7.191406 9.0625 -6.546875 C 9.457031 -5.898438 9.65625 -5.148438 9.65625 -4.296875 C 9.65625 -3.429688 9.457031 -2.675781 9.0625 -2.03125 C 8.664062 -1.382812 8.109375 -0.882812 7.390625 -0.53125 C 6.671875 -0.175781 5.847656 0 4.921875 0 L 1.015625 0 Z M 4.828125 -1.625 C 5.679688 -1.625 6.363281 -1.863281 6.875 -2.34375 C 7.382812 -2.820312 7.640625 -3.472656 7.640625 -4.296875 C 7.640625 -5.109375 7.382812 -5.753906 6.875 -6.234375 C 6.363281 -6.710938 5.679688 -6.953125 4.828125 -6.953125 L 3 -6.953125 L 3 -1.625 Z M 4.828125 -1.625 "/></g></g></g><g fill="#135650" fill-opacity="1"><g transform="translate(10.540996, 12.619734)"><g><path d="M 6.671875 -1.84375 L 2.6875 -1.84375 L 1.921875 0 L -0.109375 0 L 3.71875 -8.59375 L 5.671875 -8.59375 L 9.515625 0 L 7.4375 0 Z M 6.046875 -3.34375 L 4.6875 -6.640625 L 3.328125 -3.34375 Z M 6.046875 -3.34375 "/></g></g></g><g fill="#135650" fill-opacity="1"><g transform="translate(20.042925, 12.619734)"><g><path d="M 8.890625 -8.59375 L 8.890625 0 L 7.265625 0 L 2.984375 -5.21875 L 2.984375 0 L 1.015625 0 L 1.015625 -8.59375 L 2.65625 -8.59375 L 6.9375 -3.375 L 6.9375 -8.59375 Z M 8.890625 -8.59375 "/></g></g></g><g fill="#135650" fill-opacity="1"><g transform="translate(30.059798, 12.619734)"><g><path d="M 1.015625 -8.59375 L 3 -8.59375 L 3 0 L 1.015625 0 Z M 1.015625 -8.59375 "/></g></g></g><g fill="#135650" fill-opacity="1"><g transform="translate(34.191621, 12.619734)"><g><path d="M 3.84375 0.140625 C 3.164062 0.140625 2.507812 0.0507812 1.875 -0.125 C 1.238281 -0.3125 0.726562 -0.550781 0.34375 -0.84375 L 1.015625 -2.34375 C 1.378906 -2.070312 1.816406 -1.851562 2.328125 -1.6875 C 2.835938 -1.53125 3.34375 -1.453125 3.84375 -1.453125 C 4.414062 -1.453125 4.832031 -1.535156 5.09375 -1.703125 C 5.363281 -1.867188 5.5 -2.09375 5.5 -2.375 C 5.5 -2.570312 5.421875 -2.738281 5.265625 -2.875 C 5.109375 -3.007812 4.90625 -3.117188 4.65625 -3.203125 C 4.40625 -3.285156 4.066406 -3.375 3.640625 -3.46875 C 2.984375 -3.625 2.445312 -3.78125 2.03125 -3.9375 C 1.613281 -4.09375 1.253906 -4.34375 0.953125 -4.6875 C 0.660156 -5.03125 0.515625 -5.488281 0.515625 -6.0625 C 0.515625 -6.5625 0.648438 -7.007812 0.921875 -7.40625 C 1.191406 -7.8125 1.597656 -8.132812 2.140625 -8.375 C 2.679688 -8.613281 3.347656 -8.734375 4.140625 -8.734375 C 4.679688 -8.734375 5.210938 -8.664062 5.734375 -8.53125 C 6.265625 -8.40625 6.722656 -8.21875 7.109375 -7.96875 L 6.5 -6.46875 C 5.707031 -6.914062 4.914062 -7.140625 4.125 -7.140625 C 3.5625 -7.140625 3.144531 -7.046875 2.875 -6.859375 C 2.613281 -6.679688 2.484375 -6.445312 2.484375 -6.15625 C 2.484375 -5.863281 2.632812 -5.644531 2.9375 -5.5 C 3.25 -5.351562 3.722656 -5.210938 4.359375 -5.078125 C 5.003906 -4.921875 5.535156 -4.765625 5.953125 -4.609375 C 6.378906 -4.453125 6.738281 -4.207031 7.03125 -3.875 C 7.332031 -3.539062 7.484375 -3.085938 7.484375 -2.515625 C 7.484375 -2.023438 7.34375 -1.578125 7.0625 -1.171875 C 6.789062 -0.765625 6.378906 -0.441406 5.828125 -0.203125 C 5.285156 0.0234375 4.625 0.140625 3.84375 0.140625 Z M 3.59375 2.84375 C 3.375 2.84375 3.160156 2.816406 2.953125 2.765625 C 2.753906 2.722656 2.585938 2.664062 2.453125 2.59375 L 2.734375 1.765625 C 3.003906 1.890625 3.269531 1.953125 3.53125 1.953125 C 3.957031 1.953125 4.171875 1.820312 4.171875 1.5625 C 4.171875 1.320312 3.972656 1.203125 3.578125 1.203125 L 3.15625 1.203125 L 3.484375 -0.09375 L 4.5 -0.09375 L 4.328125 0.609375 C 4.679688 0.648438 4.945312 0.765625 5.125 0.953125 C 5.300781 1.140625 5.390625 1.363281 5.390625 1.625 C 5.390625 2.007812 5.222656 2.304688 4.890625 2.515625 C 4.566406 2.734375 4.132812 2.84375 3.59375 2.84375 Z M 3.59375 2.84375 "/></g></g></g><g fill="#135650" fill-opacity="1"><g transform="translate(42.124203, 12.619734)"><g><path d="M 8.828125 0 L 8.8125 -5.15625 L 6.296875 -0.90625 L 5.390625 -0.90625 L 2.875 -5.046875 L 2.875 0 L 1.015625 0 L 1.015625 -8.59375 L 2.65625 -8.59375 L 5.875 -3.25 L 9.046875 -8.59375 L 10.671875 -8.59375 L 10.703125 0 Z M 8.828125 0 "/></g></g></g><g fill="#135650" fill-opacity="1"><g transform="translate(53.943372, 12.619734)"><g><path d="M 6.671875 -1.84375 L 2.6875 -1.84375 L 1.921875 0 L -0.109375 0 L 3.71875 -8.59375 L 5.671875 -8.59375 L 9.515625 0 L 7.4375 0 Z M 6.046875 -3.34375 L 4.6875 -6.640625 L 3.328125 -3.34375 Z M 6.046875 -3.34375 "/></g></g></g><g fill="#135650" fill-opacity="1"><g transform="translate(63.445301, 12.619734)"><g><path d="M 8.890625 -8.59375 L 8.890625 0 L 7.265625 0 L 2.984375 -5.21875 L 2.984375 0 L 1.015625 0 L 1.015625 -8.59375 L 2.65625 -8.59375 L 6.9375 -3.375 L 6.9375 -8.59375 Z M 8.890625 -8.59375 "/></g></g></g><g fill="#135650" fill-opacity="1"><g transform="translate(73.462172, 12.619734)"><g><path d="M 1.015625 -8.59375 L 3 -8.59375 L 3 -1.625 L 7.3125 -1.625 L 7.3125 0 L 1.015625 0 Z M 1.015625 -8.59375 "/></g></g></g><g fill="#135650" fill-opacity="1"><g transform="translate(80.977899, 12.619734)"><g><path d="M 1.015625 -8.59375 L 3 -8.59375 L 3 0 L 1.015625 0 Z M 1.015625 -8.59375 "/></g></g></g><g clip-path="url(#1f1485e054)"><g fill="#135650" fill-opacity="1"><g transform="translate(85.109724, 12.619734)"><g><path d="M 4.140625 -3.375 L 3 -2.171875 L 3 0 L 1.015625 0 L 1.015625 -8.59375 L 3 -8.59375 L 3 -4.578125 L 6.796875 -8.59375 L 9 -8.59375 L 5.453125 -4.765625 L 9.21875 0 L 6.890625 0 Z M 4.140625 -3.375 "/></g></g></g></g></g></g><path stroke-linecap="butt" transform="matrix(0.265676, 0.000000000000000251, -0.000000000000000251, 0.265676, 100.454538, 2.47706)" fill="none" stroke-linejoin="miter" d="M -0.00531695 3.497459 L 30.121287 3.497459 " stroke="#25995c" stroke-width="7" stroke-opacity="1" stroke-miterlimit="4"/></g></g></svg>